<svg width="32" height="33" viewBox="0 0 32 33" fill="none" xmlns="http://www.w3.org/2000/svg">
<path fill-rule="evenodd" clip-rule="evenodd" d="M31.9439 16.9797C31.9439 15.824 31.8402 14.7128 31.6476 13.646H16.2979V19.9503H25.0691C24.6913 21.9876 23.543 23.7137 21.8169 24.8694V28.9587H27.0841C30.1659 26.1213 31.9439 21.9431 31.9439 16.9797Z" fill="#4285F4"/>
<path fill-rule="evenodd" clip-rule="evenodd" d="M16.2973 32.9074C20.6978 32.9074 24.3871 31.448 27.0836 28.9588L21.8164 24.8695C20.357 25.8474 18.4902 26.4253 16.2973 26.4253C12.0525 26.4253 8.45952 23.5583 7.17791 19.7061H1.73291V23.9287C4.41466 29.2552 9.92633 32.9074 16.2973 32.9074Z" fill="#34A853"/>
<path fill-rule="evenodd" clip-rule="evenodd" d="M7.1785 19.7059C6.85254 18.728 6.66734 17.6835 6.66734 16.6093C6.66734 15.5351 6.85254 14.4906 7.1785 13.5127V9.29004H1.73351C0.629693 11.4903 0 13.9794 0 16.6093C0 19.2392 0.629693 21.7283 1.73351 23.9286L7.1785 19.7059Z" fill="#FBBC05"/>
<path fill-rule="evenodd" clip-rule="evenodd" d="M16.2973 6.79366C18.6902 6.79366 20.8385 7.61597 22.5276 9.23094L27.2022 4.5564C24.3796 1.9265 20.6904 0.311523 16.2973 0.311523C9.92633 0.311523 4.41466 3.96374 1.73291 9.29021L7.17791 13.5129C8.45952 9.66062 12.0525 6.79366 16.2973 6.79366Z" fill="#EA4335"/>
</svg>
