<svg width="50" height="50" viewBox="0 0 50 50" fill="none" xmlns="http://www.w3.org/2000/svg">
<path fill-rule="evenodd" clip-rule="evenodd" d="M25.0002 6.25065C14.6448 6.25065 6.25016 14.6453 6.25016 25.0007C6.25016 35.356 14.6448 43.7506 25.0002 43.7506C35.3555 43.7506 43.7502 35.356 43.7502 25.0007C43.7502 14.6453 35.3555 6.25065 25.0002 6.25065ZM2.0835 25.0007C2.0835 12.3441 12.3436 2.08398 25.0002 2.08398C37.6567 2.08398 47.9168 12.3441 47.9168 25.0007C47.9168 37.6572 37.6567 47.9173 25.0002 47.9173C12.3436 47.9173 2.0835 37.6572 2.0835 25.0007Z" fill="black"/>
<path fill-rule="evenodd" clip-rule="evenodd" d="M32.723 17.2762C33.5366 18.0898 33.5366 19.4089 32.723 20.2225L20.223 32.7225C19.4094 33.5361 18.0903 33.5361 17.2767 32.7225C16.4631 31.9089 16.4631 30.5898 17.2767 29.7762L29.7767 17.2762C30.5903 16.4626 31.9094 16.4626 32.723 17.2762Z" fill="black"/>
<path fill-rule="evenodd" clip-rule="evenodd" d="M17.2767 17.2762C18.0903 16.4626 19.4094 16.4626 20.223 17.2762L32.723 29.7762C33.5366 30.5898 33.5366 31.9089 32.723 32.7225C31.9094 33.5361 30.5903 33.5361 29.7767 32.7225L17.2767 20.2225C16.4631 19.4089 16.4631 18.0898 17.2767 17.2762Z" fill="black"/>
</svg>
